<svg viewBox="0 0 200 200" xmlns="http://www.w3.org/2000/svg">
  <rect x="0" y="0" width="200" height="200" rx="40" fill="#7c3aed"/>
  <rect x="50" y="50" width="100" height="100" rx="8" fill="#2C3E50"/>
  <rect x="60" y="60" width="36" height="24" rx="4" fill="#b794f4"/>
  <circle cx="110" cy="72" r="4" fill="#E74C3C"/>
  <circle cx="130" cy="72" r="4" fill="#E74C3C"/>
  <rect x="60" y="94" width="14" height="14" rx="2" fill="#95A5A6"/>
  <rect x="80" y="94" width="14" height="14" rx="2" fill="#95A5A6"/>
  <rect x="100" y="94" width="14" height="14" rx="2" fill="#95A5A6"/>
  <rect x="120" y="94" width="14" height="14" rx="2" fill="#95A5A6"/>
  <rect x="60" y="114" width="14" height="14" rx="2" fill="#95A5A6"/>
  <rect x="80" y="114" width="14" height="14" rx="2" fill="#95A5A6"/>
  <rect x="100" y="114" width="14" height="14" rx="2" fill="#95A5A6"/>
  <rect x="120" y="114" width="34" height="14" rx="2" fill="#2ECC71"/>
</svg>
